HIERARCHY
ROOT Hips
{
  OFFSET 52.3944 84.5858 34.6055
  CHANNELS 6 Xposition Yposition Zposition Zrotation Xrotation Yrotation
  JOINT spine
  {
    OFFSET 0 5.95438 0.342407
    CHANNELS 3 Zrotation Xrotation Yrotation
    JOINT spine1
    {
      OFFSET 0 8.85602 0
      CHANNELS 3 Zrotation Xrotation Yrotation
      JOINT spine2
      {
        OFFSET 0 8.48567 0
        CHANNELS 3 Zrotation Xrotation Yrotation
        JOINT Neck
        {
          OFFSET 0 21.7863 1.0387
          CHANNELS 3 Zrotation Xrotation Yrotation
          JOINT Head
          {
            OFFSET 0 6.5822 0
            CHANNELS 3 Zrotation Xrotation Yrotation
            End Site
            {
              OFFSET 0 15.9326 -5.25436
            }
          }
        }
        JOINT RightShoulder
        {
          OFFSET -3.57307 9.16386 -0.497525
          CHANNELS 3 Zrotation Xrotation Yrotation
          JOINT RightArm
          {
            OFFSET 0 12.0192 0
            CHANNELS 3 Zrotation Xrotation Yrotation
            JOINT RightArmRoll
            {
              OFFSET 0 6.06755 0
              CHANNELS 3 Zrotation Xrotation Yrotation
              JOINT RightForeArm
              {
                OFFSET 0 17.6726 0
                CHANNELS 3 Zrotation Xrotation Yrotation
                JOINT RightForeArmRoll
                {
                  OFFSET 0 6.80872 0
                  CHANNELS 3 Zrotation Xrotation Yrotation
                  JOINT RightHand
                  {
                    OFFSET 0 13.6636 0
                    CHANNELS 3 Zrotation Xrotation Yrotation
                    End Site
                    {
                      OFFSET 0 0 0
                    }
                  }
                }
              }
            }
          }
        }
        JOINT LeftShoulder
        {
          OFFSET 3.57307 9.16386 -0.497525
          CHANNELS 3 Zrotation Xrotation Yrotation
          JOINT LeftArm
          {
            OFFSET 0 12.0192 0
            CHANNELS 3 Zrotation Xrotation Yrotation
            JOINT LeftArmRoll
            {
              OFFSET 0 6.06755 0
              CHANNELS 3 Zrotation Xrotation Yrotation
              JOINT LeftForeArm
              {
                OFFSET 0 17.6726 0
                CHANNELS 3 Zrotation Xrotation Yrotation
                JOINT LeftForeArmRoll
                {
                  OFFSET 0 6.80872 0
                  CHANNELS 3 Zrotation Xrotation Yrotation
                  JOINT LeftHand
                  {
                    OFFSET 0 13.6636 0
                    CHANNELS 3 Zrotation Xrotation Yrotation
                    End Site
                    {
                      OFFSET 0 0 0
                    }
                  }
                }
              }
            }
          }
        }
      }
    }
  }
  JOINT RightUpLeg
  {
    OFFSET -5.27774 -0.967797 -0.811858
    CHANNELS 3 Zrotation Xrotation Yrotation
    JOINT RightUpLegRoll
    {
      OFFSET 0 16.0214 0
      CHANNELS 3 Zrotation Xrotation Yrotation
      JOINT RightLeg
      {
        OFFSET 0 -19.8401 0
        CHANNELS 3 Zrotation Xrotation Yrotation
        JOINT RightLegRoll
        {
          OFFSET 0 19.905 0
          CHANNELS 3 Zrotation Xrotation Yrotation
          JOINT RightFoot
          {
            OFFSET 0 16.5675 0
            CHANNELS 3 Zrotation Xrotation Yrotation
            JOINT RightToeBase
            {
              OFFSET 0 13.8496 0
              CHANNELS 3 Zrotation Xrotation Yrotation
              End Site
              {
                OFFSET 0.00587034 6.70727 -0.773117
              }
            }
          }
        }
      }
    }
  }
  JOINT LeftUpLeg
  {
    OFFSET 5.27774 -0.967797 -0.811858
    CHANNELS 3 Zrotation Xrotation Yrotation
    JOINT LeftUpLegRoll
    {
      OFFSET 0 16.0215 0
      CHANNELS 3 Zrotation Xrotation Yrotation
      JOINT LeftLeg
      {
        OFFSET 0 19.84 0
        CHANNELS 3 Zrotation Xrotation Yrotation
        JOINT LeftLegRoll
        {
          OFFSET 0 20.089 0
          CHANNELS 3 Zrotation Xrotation Yrotation
          JOINT LeftFoot
          {
            OFFSET 0 16.3835 0
            CHANNELS 3 Zrotation Xrotation Yrotation
            JOINT LeftToeBase
            {
              OFFSET 0 13.8496 0
              CHANNELS 3 Zrotation Xrotation Yrotation
              End Site
              {
                OFFSET -0.0263083 6.70727 -0.773117
              }
            }
          }
        }
      }
    }
  }
}
MOTION
Frames: 9
Frame Time: 0.00208333
50.0125 54.7682 -8.27705 -1.30655 -18.6441 2.95883 -0.603212 -0.703007 -0.413025 -1.20837 2.61411 -0.74897 -1.20061 4.25895 -0.729708 8.85052 13.2876 -2.59289 -4.84673 8.94171 0.428155 95.0707 -0.716847 -3.99962 84.5318 27.9905 9.18756 4.77083e-015 6.36111e-015 6.36111e-015 -3.64704 -0.0274036 -1.99257 -1.65057e-006 -4.03589e-007 -3.01161 8.03008 -4.95138 0.697633 -68.8649 -8.29176 5.36447 -106.734 25.5284 9.30814 -2.62529e-005 -7.03926e-008 2.60515e-006 3.65385 -0.0297161 1.99255 -5.2894e-007 3.16187e-006 3.01161 -8.03009 -4.95139 -0.697639 178.075 74.1439 -0.807637 180 -1.52484e-005 177.883 -47.7902 79.548 49.9113 4.92866e-006 3.15806e-006 2.85651 -17.4988 64.8441 17.1688 8.13649 25.2327 -3.48773 -175.022 74.7705 0.561594 4.54188e-006 -4.6773e-006 -2.27225 132.616 -79.712 129.025 2.21723e-006 7.55545e-007 -2.69819 15.523 59.1847 -13.9746 -8.13648 25.2327 3.48773 
49.9997 54.7694 -8.28026 -1.31226 -18.6419 2.95391 -0.602878 -0.701232 -0.412618 -1.20769 2.61668 -0.748416 -1.19994 4.26151 -0.729131 8.83248 13.3195 -2.59428 -4.81326 8.95086 0.423272 95.0683 -0.718706 -3.99986 84.5454 27.9993 9.17395 -2.46493e-014 1.90833e-014 -1.66979e-014 -3.64704 -0.0274036 -1.99257 -1.65057e-006 -4.03589e-007 -3.01161 8.03008 -4.95138 0.697633 -68.8651 -8.29814 5.36777 -106.764 25.5364 9.33844 -2.62529e-005 -7.03926e-008 2.60515e-006 3.65385 -0.0297161 1.99255 -5.2894e-007 3.16187e-006 3.01161 -8.03009 -4.95139 -0.697639 178.125 74.1509 -0.850281 180 -1.52484e-005 177.884 -47.7998 79.5491 49.9191 4.92866e-006 3.15806e-006 2.85651 -17.5018 64.8484 17.1722 8.13649 25.2327 -3.48773 -175.005 74.7769 0.540633 4.54188e-006 -4.6773e-006 -2.27217 132.611 -79.7147 129.023 2.21723e-006 7.55545e-007 -2.69791 15.5224 59.1835 -13.9742 -8.13648 25.2327 3.48773 
49.9934 54.7579 -8.29676 -1.31836 -18.6402 2.94903 -0.602457 -0.699362 -0.412233 -1.20683 2.61939 -0.747916 -1.19909 4.26423 -0.728604 8.81394 13.3509 -2.59555 -4.77921 8.96022 0.418313 95.0658 -0.720396 -4.00005 84.5585 28.0079 9.16068 -9.54166e-015 9.54166e-015 -7.15625e-015 -3.64704 -0.0274036 -1.99257 -1.65057e-006 -4.03589e-007 -3.01161 8.03008 -4.95138 0.697633 -68.8659 -8.30453 5.37108 -106.795 25.5449 9.36889 -2.62529e-005 -7.03926e-008 2.60515e-006 3.65385 -0.0297161 1.99255 -5.2894e-007 3.16187e-006 3.01161 -8.03009 -4.95139 -0.697639 178.174 74.1572 -0.893328 180 -1.52484e-005 177.884 -47.8087 79.55 49.9262 4.92866e-006 3.15806e-006 2.85651 -17.5048 64.8528 17.1756 8.13649 25.2327 -3.48773 -174.985 74.7829 0.518688 4.54188e-006 -4.6773e-006 -2.27212 132.606 -79.717 129.021 2.21723e-006 7.55545e-007 -2.69766 15.5219 59.1822 -13.9737 -8.13648 25.2327 3.48773 
49.9871 54.7513 -8.2981 -1.32471 -18.6389 2.94419 -0.601977 -0.697427 -0.411862 -1.20584 2.62222 -0.747452 -1.19812 4.26705 -0.72811 8.79505 13.3818 -2.59673 -4.74478 8.96974 0.413303 95.0635 -0.72197 -4.00022 84.5714 28.0164 9.14763 5.56597e-015 -3.18055e-015 3.97569e-015 -3.64704 -0.0274036 -1.99257 -1.65057e-006 -4.03589e-007 -3.01161 8.03008 -4.95138 0.697633 -68.8672 -8.31093 5.37441 -106.825 25.5539 9.39944 -2.62529e-005 -7.03926e-008 2.60515e-006 3.65385 -0.0297161 1.99255 -5.2894e-007 3.16187e-006 3.01161 -8.03009 -4.95139 -0.697639 178.224 74.163 -0.936665 180 -1.52484e-005 177.884 -47.8172 79.5508 49.933 4.92866e-006 3.15806e-006 2.85651 -17.5078 64.8572 17.179 8.13649 25.2327 -3.48773 -174.965 74.7888 0.496049 4.54188e-006 -4.6773e-006 -2.2721 132.603 -79.7192 129.02 2.21723e-006 7.55545e-007 -2.69743 15.5213 59.1809 -13.9731 -8.13648 25.2327 3.48773 
50.0586 54.7862 -8.29245 -1.33122 -18.6377 2.93936 -0.601462 -0.695453 -0.411499 -1.20479 2.6251 -0.74701 -1.19708 4.26993 -0.727637 8.77595 13.4125 -2.59785 -4.71011 8.97935 0.408262 95.0611 -0.723476 -4.00038 84.5842 28.0249 9.13471 -1.59028e-015 -3.18055e-015 7.95139e-016 -3.64704 -0.0274036 -1.99257 -1.65057e-006 -4.03589e-007 -3.01161 8.03008 -4.95138 0.697633 -68.8688 -8.31733 5.37774 -106.855 25.5631 9.43006 -2.62529e-005 -7.03926e-008 2.60515e-006 3.65385 -0.0297161 1.99255 -5.2894e-007 3.16187e-006 3.01161 -8.03009 -4.95139 -0.697639 178.275 74.1686 -0.980177 180 -1.52484e-005 177.884 -47.8254 79.5515 49.9394 4.92866e-006 3.15806e-006 2.85651 -17.5108 64.8615 17.1825 8.13649 25.2327 -3.48773 -174.945 74.7946 0.473007 4.54188e-006 -4.6773e-006 -2.27208 132.6 -79.7213 129.019 2.21723e-006 7.55545e-007 -2.69721 15.5207 59.1795 -13.9725 -8.13648 25.2327 3.48773 
50.0447 54.7817 -8.29829 -1.33777 -18.6367 2.93454 -0.600939 -0.69347 -0.411138 -1.20372 2.62801 -0.746573 -1.19602 4.27283 -0.727168 8.75681 13.4431 -2.59897 -4.67538 8.98898 0.403214 95.0588 -0.724965 -4.00053 84.597 28.0334 9.12182 -1.66979e-014 -3.18055e-015 -1.03368e-014 -3.64704 -0.0274036 -1.99257 -1.65057e-006 -4.03589e-007 -3.01161 8.03008 -4.95138 0.697633 -68.8704 -8.32374 5.38108 -106.885 25.5723 9.46069 -2.62529e-005 -7.03926e-008 2.60515e-006 3.65385 -0.0297161 1.99255 -5.2894e-007 3.16187e-006 3.01161 -8.03009 -4.95139 -0.697639 178.325 74.1741 -1.02376 180 -1.52484e-005 177.884 -47.8336 79.5522 49.9458 4.92866e-006 3.15806e-006 2.85651 -17.5139 64.8659 17.1859 8.13649 25.2327 -3.48773 -174.924 74.8003 0.449851 4.54188e-006 -4.6773e-006 -2.27207 132.597 -79.7233 129.018 2.21723e-006 7.55545e-007 -2.69698 15.5201 59.1781 -13.9719 -8.13648 25.2327 3.48773 
50.019 54.7686 -8.31401 -1.34424 -18.6355 2.9297 -0.600432 -0.691506 -0.410774 -1.20268 2.63088 -0.746125 -1.19499 4.2757 -0.726689 8.73778 13.4738 -2.60011 -4.64077 8.99857 0.39818 95.0564 -0.726488 -4.00069 84.6098 28.0419 9.10886 3.18055e-015 -6.36111e-015 3.97569e-015 -3.64704 -0.0274036 -1.99257 -1.65057e-006 -4.03589e-007 -3.01161 8.03008 -4.95138 0.697633 -68.8719 -8.33014 5.38441 -106.915 25.5814 9.4913 -2.62529e-005 -7.03926e-008 2.60515e-006 3.65385 -0.0297161 1.99255 -5.2894e-007 3.16187e-006 3.01161 -8.03009 -4.95139 -0.697639 178.376 74.1797 -1.06729 180 -1.52484e-005 177.884 -47.8419 79.5529 49.9522 4.92866e-006 3.15806e-006 2.85651 -17.5169 64.8702 17.1893 8.13649 25.2327 -3.48773 -174.903 74.8061 0.426872 4.54188e-006 -4.6773e-006 -2.27205 132.593 -79.7254 129.018 2.21723e-006 7.55545e-007 -2.69676 15.5195 59.1768 -13.9713 -8.13648 25.2327 3.48773 
50.0382 54.774 -8.31461 -1.35052 -18.6341 2.92485 -0.599969 -0.68959 -0.410398 -1.20173 2.63367 -0.745651 -1.19406 4.27849 -0.726186 8.71899 13.5048 -2.60132 -4.60643 9.00805 0.393183 95.054 -0.728095 -4.00087 84.6228 28.0505 9.09573 -3.97569e-015 3.18055e-015 -1.59028e-015 -3.64704 -0.0274036 -1.99257 -1.65057e-006 -4.03589e-007 -3.01161 8.03008 -4.95138 0.697633 -68.8731 -8.33654 5.38774 -106.946 25.5902 9.52185 -2.62529e-005 -7.03926e-008 2.60515e-006 3.65385 -0.0297161 1.99255 -5.2894e-007 3.16187e-006 3.01161 -8.03009 -4.95139 -0.697639 178.426 74.1857 -1.11068 180 -1.52484e-005 177.884 -47.8505 79.5538 49.9591 4.92866e-006 3.15806e-006 2.85651 -17.5199 64.8746 17.1928 8.13649 25.2327 -3.48773 -174.883 74.812 0.404359 4.54188e-006 -4.6773e-006 -2.27202 132.589 -79.7277 129.016 2.21723e-006 7.55545e-007 -2.69652 15.5189 59.1755 -13.9708 -8.13648 25.2327 3.48773 
50.0569 54.8063 -8.30958 -1.3565 -18.6322 2.91996 -0.599575 -0.687749 -0.410006 -1.20093 2.63634 -0.745134 -1.19326 4.28116 -0.725644 8.70061 13.5364 -2.60263 -4.57255 9.01735 0.388246 95.0516 -0.729836 -4.00108 84.6361 28.0591 9.08235 -1.03368e-014 -9.54166e-015 -6.36111e-015 -3.64704 -0.0274036 -1.99257 -1.65057e-006 -4.03589e-007 -3.01161 8.03008 -4.95138 0.697633 -68.8737 -8.34292 5.39104 -106.976 25.5985 9.55228 -2.62529e-005 -7.03926e-008 2.60515e-006 3.65385 -0.0297161 1.99255 -5.2894e-007 3.16187e-006 3.01161 -8.03009 -4.95139 -0.697639 178.476 74.1921 -1.15381 180 -1.52484e-005 177.884 -47.8596 79.5547 49.9664 4.92866e-006 3.15806e-006 2.85651 -17.5229 64.879 17.1962 8.13649 25.2327 -3.48773 -174.864 74.8181 0.382601 4.54188e-006 -4.6773e-006 -2.27196 132.585 -79.7302 129.014 2.21723e-006 7.55545e-007 -2.69626 15.5184 59.1742 -13.9703 -8.13648 25.2327 3.48773 
